<mxfile host="app.diagrams.net" modified="2022-12-22T16:08:53.841Z" agent="5.0 (Windows NT 10.0; Win64; x64) AppleWebKit/537.36 (KHTML, like Gecko) Chrome/108.0.0.0 Safari/537.36 Edg/108.0.1462.54" version="20.7.4" etag="IvSXsIwgT3DXlRVIgUJW" type="github">
  <diagram id="CPDld0PHapNwi4OezkGK" name="第 1 页">
    <mxGraphModel dx="521" dy="539" grid="1" gridSize="10" guides="1" tooltips="1" connect="1" arrows="1" fold="1" page="1" pageScale="1" pageWidth="827" pageHeight="1169" math="0" shadow="0">
      <root>
        <mxCell id="0" />
        <mxCell id="1" parent="0" />
        <mxCell id="v_h4UwNAV2sQmkhiFhpI-1" value="InputSPD&lt;br&gt;(63*63)" style="rounded=0;whiteSpace=wrap;html=1;" vertex="1" parent="1">
          <mxGeometry x="140" y="50" width="110" height="50" as="geometry" />
        </mxCell>
        <mxCell id="v_h4UwNAV2sQmkhiFhpI-2" value="BiMap Layer&lt;br&gt;53*53" style="rounded=0;whiteSpace=wrap;html=1;" vertex="1" parent="1">
          <mxGeometry x="170" y="140" width="120" height="60" as="geometry" />
        </mxCell>
        <mxCell id="v_h4UwNAV2sQmkhiFhpI-3" value="ReEig Layer&lt;br&gt;53*53" style="rounded=0;whiteSpace=wrap;html=1;" vertex="1" parent="1">
          <mxGeometry x="260" y="240" width="110" height="60" as="geometry" />
        </mxCell>
        <mxCell id="v_h4UwNAV2sQmkhiFhpI-4" value="BiMap Layer&lt;br&gt;43*43" style="rounded=0;whiteSpace=wrap;html=1;" vertex="1" parent="1">
          <mxGeometry x="300" y="330" width="120" height="60" as="geometry" />
        </mxCell>
      </root>
    </mxGraphModel>
  </diagram>
</mxfile>
